<svg xmlns="http://www.w3.org/2000/svg" xmlns:xlink="http://www.w3.org/1999/xlink" style="margin:auto;background:#f1f2f3;display:block;z-index:1;position:relative" width="1257" height="948" preserveAspectRatio="xMidYMid" viewBox="0 0 1257 948">
    <g transform="translate(628.5,474) scale(1,1) translate(-628.5,-474)"><path id="path0" d="M 713.746858368537 764.0971613392098
c 0 25.69572982492525 -6.287253042268944 7.380688353967892 -13.667941396236836 7.380688353967892
S 686.4109755760633 789.7928911641351 686.4109755760633 764.0971613392098
s 6.287253042268944 -7.380688353967892 13.667941396236836 -7.380688353967892
S 713.746858368537 738.4014315142846 713.746858368537 764.0971613392098
z" fill="none" stroke="none"></path>
        <circle cx="0" cy="0" r="4.542294938871181" fill="#d9dbee" opacity="0.9">
            <animateMotion begin="-7.25501490536975s" dur="11.58s" repeatCount="indefinite">
                <mpath xlink:href="#path0"></mpath>
            </animateMotion>
        </circle><path id="path1" d="M 1053.6197549670721 437.0608385161936
c 0 25.99518698770566 -6.360524475715214 7.466702645404817 -13.827227121120032 7.466702645404817
S 1025.9653007248319 463.05602550389926 1025.9653007248319 437.0608385161936
s 6.360524475715214 -7.466702645404817 13.827227121120032 -7.466702645404817
S 1053.6197549670721 411.06565152848793 1053.6197549670721 437.0608385161936
z" fill="none" stroke="none"></path>
        <circle cx="0" cy="0" r="5.656928322149456" fill="#5e6fa3" opacity="0.9">
            <animateMotion begin="-10.971299380775715s" dur="11.58s" repeatCount="indefinite">
                <mpath xlink:href="#path1"></mpath>
            </animateMotion>
        </circle><path id="path2" d="M 37.06439952414917 833.891365132186
c 0 30.482353692476458 -7.458448243903813 8.755569677626218 -16.21401792153003 8.755569677626218
S 4.636363681089108 864.3737188246624 4.636363681089108 833.891365132186
s 7.458448243903813 -8.755569677626218 16.21401792153003 -8.755569677626218
S 37.06439952414917 803.4090114397096 37.06439952414917 833.891365132186
z" fill="none" stroke="none"></path>
        <circle cx="0" cy="0" r="7.993390919425452" fill="#191d3a" opacity="0.9">
            <animateMotion begin="-0.48483651646934595s" dur="11.58s" repeatCount="indefinite">
                <mpath xlink:href="#path2"></mpath>
            </animateMotion>
        </circle><path id="path3" d="M 331.41272954554336 155.7680901941732
c 0 20.776093041040983 -5.083512127063218 5.967601192639432 -11.051113319702651 5.967601192639432
S 309.310502906138 176.54418323521418 309.310502906138 155.7680901941732
s 5.083512127063218 -5.967601192639432 11.051113319702651 -5.967601192639432
S 331.41272954554336 134.99199715313222 331.41272954554336 155.7680901941732
z" fill="none" stroke="none"></path>
        <circle cx="0" cy="0" r="4.534465856846977" fill="#93dbe9" opacity="0.9">
            <animateMotion begin="-10.01367864196619s" dur="11.58s" repeatCount="indefinite">
                <mpath xlink:href="#path3"></mpath>
            </animateMotion>
        </circle><path id="path4" d="M 347.7214064050729 140.45124591547636
c 0 21.44955704184526 -5.248295871940861 6.161042980104489 -11.40933885204535 6.161042980104489
S 324.90272870098227 161.90080295732162 324.90272870098227 140.45124591547636
s 5.248295871940861 -6.161042980104489 11.40933885204535 -6.161042980104489
S 347.7214064050729 119.00168887363111 347.7214064050729 140.45124591547636
z" fill="none" stroke="none"></path>
        <circle cx="0" cy="0" r="7.832462747994733" fill="#93dbe9" opacity="0.9">
            <animateMotion begin="-1.8207558059360118s" dur="11.58s" repeatCount="indefinite">
                <mpath xlink:href="#path4"></mpath>
            </animateMotion>
        </circle><path id="path5" d="M 193.1704202847587 548.399412476563
c 0 31.440799635193784 -7.692961612866563 9.030867980321618 -16.72382959318818 9.030867980321618
S 159.72276109838234 579.8402121117568 159.72276109838234 548.399412476563
s 7.692961612866563 -9.030867980321618 16.72382959318818 -9.030867980321618
S 193.1704202847587 516.9586128413692 193.1704202847587 548.399412476563
z" fill="none" stroke="none"></path>
        <circle cx="0" cy="0" r="6.697733687315176" fill="#689cc5" opacity="0.9">
            <animateMotion begin="-5.80161396738217s" dur="11.58s" repeatCount="indefinite">
                <mpath xlink:href="#path5"></mpath>
            </animateMotion>
        </circle><path id="path6" d="M 687.4298767215236 559.121826866562
c 0 36.818636009896196 -9.008815193910769 10.575565662416992 -19.584380856327762 10.575565662416992
S 648.2611150088679 595.9404628764581 648.2611150088679 559.121826866562
s 9.008815193910769 -10.575565662416992 19.584380856327762 -10.575565662416992
S 687.4298767215236 522.3031908566658 687.4298767215236 559.121826866562
z" fill="none" stroke="none"></path>
        <circle cx="0" cy="0" r="4.784862816669376" fill="#5e6fa3" opacity="0.9">
            <animateMotion begin="-9.948360931992974s" dur="11.58s" repeatCount="indefinite">
                <mpath xlink:href="#path6"></mpath>
            </animateMotion>
        </circle><path id="path7" d="M 537.3841537450481 696.5781394614103
c 0 35.62461509781071 -8.716661140953683 10.232602208945629 -18.94926334989931 10.232602208945629
S 499.48562704524954 732.202754559221 499.48562704524954 696.5781394614103
s 8.716661140953683 -10.232602208945629 18.94926334989931 -10.232602208945629
S 537.3841537450481 660.9535243635995 537.3841537450481 696.5781394614103
z" fill="none" stroke="none"></path>
        <circle cx="0" cy="0" r="6.091521849293861" fill="#5e6fa3" opacity="0.9">
            <animateMotion begin="-6.249058743022396s" dur="11.58s" repeatCount="indefinite">
                <mpath xlink:href="#path7"></mpath>
            </animateMotion>
        </circle><path id="path8" d="M 557.1661221829315 618.206193134384
c 0 31.84068397654528 -7.7908056538355455 9.14572837624173 -16.936534030077276 9.14572837624173
S 523.293054122777 650.0468771109292 523.293054122777 618.206193134384
s 7.7908056538355455 -9.14572837624173 16.936534030077276 -9.14572837624173
S 557.1661221829315 586.3655091578387 557.1661221829315 618.206193134384
z" fill="none" stroke="none"></path>
        <circle cx="0" cy="0" r="5.672640248467799" fill="#191d3a" opacity="0.9">
            <animateMotion begin="-4.369746732352896s" dur="11.58s" repeatCount="indefinite">
                <mpath xlink:href="#path8"></mpath>
            </animateMotion>
        </circle><path id="path9" d="M 1205.2493101323826 826.6189582151262
c 0 37.58993732079442 -9.197537855087996 10.797109655972866 -19.99464751106086 10.797109655972866
S 1165.260015110261 864.2088955359206 1165.260015110261 826.6189582151262
s 9.197537855087996 -10.797109655972866 19.99464751106086 -10.797109655972866
S 1205.2493101323826 789.0290208943318 1205.2493101323826 826.6189582151262
z" fill="none" stroke="none"></path>
        <circle cx="0" cy="0" r="7.341891663479371" fill="#191d3a" opacity="0.9">
            <animateMotion begin="-3.619636600834125s" dur="11.58s" repeatCount="indefinite">
                <mpath xlink:href="#path9"></mpath>
            </animateMotion>
        </circle><path id="path10" d="M 666.861289153976 915.5468750881242
c 0 22.020266440343864 -5.387937533275626 6.324970147758345 -11.71290768103397 6.324970147758345
S 643.4354737919082 937.5671415284681 643.4354737919082 915.5468750881242
s 5.387937533275626 -6.324970147758345 11.71290768103397 -6.324970147758345
S 666.861289153976 893.5266086477803 666.861289153976 915.5468750881242
z" fill="none" stroke="none"></path>
        <circle cx="0" cy="0" r="7.629018175446378" fill="#93dbe9" opacity="0.9">
            <animateMotion begin="-2.8050589370990493s" dur="11.58s" repeatCount="indefinite">
                <mpath xlink:href="#path10"></mpath>
            </animateMotion>
        </circle><path id="path11" d="M 63.34464013536786 826.5167627213963
c 0 29.577482846194762 -7.23704367513276 8.495659966460197 -15.732703641592957 8.495659966460197
S 31.87923285218195 856.0942455675911 31.87923285218195 826.5167627213963
s 7.23704367513276 -8.495659966460197 15.732703641592957 -8.495659966460197
S 63.34464013536786 796.9392798752015 63.34464013536786 826.5167627213963
z" fill="none" stroke="none"></path>
        <circle cx="0" cy="0" r="6.183298435469174" fill="#93dbe9" opacity="0.9">
            <animateMotion begin="-9.590034320085648s" dur="11.58s" repeatCount="indefinite">
                <mpath xlink:href="#path11"></mpath>
            </animateMotion>
        </circle><path id="path12" d="M 1079.0386848649987 319.7638206335679
c 0 24.45301441170567 -5.983184377332237 7.023738182085671 -13.006922559417909 7.023738182085671
S 1053.0248397461628 344.21683504527357 1053.0248397461628 319.7638206335679
s 5.983184377332237 -7.023738182085671 13.006922559417909 -7.023738182085671
S 1079.0386848649987 295.3108062218622 1079.0386848649987 319.7638206335679
z" fill="none" stroke="none"></path>
        <circle cx="0" cy="0" r="5.664732877873957" fill="#191d3a" opacity="0.9">
            <animateMotion begin="-7.094058199452491s" dur="11.58s" repeatCount="indefinite">
                <mpath xlink:href="#path12"></mpath>
            </animateMotion>
        </circle><path id="path13" d="M 243.11179348336756 762.6209879169477
c 0 31.874961594016757 -7.799192730450907 9.155574074877153 -16.95476680532806 9.155574074877153
S 209.20225987271144 794.4959495109645 209.20225987271144 762.6209879169477
s 7.799192730450907 -9.155574074877153 16.95476680532806 -9.155574074877153
S 243.11179348336756 730.7460263229309 243.11179348336756 762.6209879169477
z" fill="none" stroke="none"></path>
        <circle cx="0" cy="0" r="6.262899627327837" fill="#d9dbee" opacity="0.9">
            <animateMotion begin="-2.4897677952680097s" dur="11.58s" repeatCount="indefinite">
                <mpath xlink:href="#path13"></mpath>
            </animateMotion>
        </circle><path id="path14" d="M 398.1746310818053 257.7344985903547
c 0 22.344792593832732 -5.467342868703753 6.418185106739189 -11.885527975442942 6.418185106739189
S 374.4035751309194 280.0792911841874 374.4035751309194 257.7344985903547
s 5.467342868703753 -6.418185106739189 11.885527975442942 -6.418185106739189
S 398.1746310818053 235.38970599652197 398.1746310818053 257.7344985903547
z" fill="none" stroke="none"></path>
        <circle cx="0" cy="0" r="7.657052577388307" fill="#b3b7e2" opacity="0.9">
            <animateMotion begin="-2.9970538258191355s" dur="11.58s" repeatCount="indefinite">
                <mpath xlink:href="#path14"></mpath>
            </animateMotion>
        </circle><path id="path15" d="M 1065.5707260105332 406.5555021512878
c 0 27.03494892141242 -6.614934310558358 7.765357668916334 -14.380291979474691 7.765357668916334
S 1036.810142051584 433.5904510727002 1036.810142051584 406.5555021512878
s 6.614934310558358 -7.765357668916334 14.380291979474691 -7.765357668916334
S 1065.5707260105332 379.52055322987536 1065.5707260105332 406.5555021512878
z" fill="none" stroke="none"></path>
        <circle cx="0" cy="0" r="6.05613148274152" fill="#d9dbee" opacity="0.9">
            <animateMotion begin="-6.076177326234501s" dur="11.58s" repeatCount="indefinite">
                <mpath xlink:href="#path15"></mpath>
            </animateMotion>
        </circle><path id="path16" d="M 1232.990224299781 901.6292758179812
c 0 36.56084800782122 -8.94573940616902 10.501520172459287 -19.447259578628305 10.501520172459287
S 1194.0957051425244 938.1901238258024 1194.0957051425244 901.6292758179812
s 8.94573940616902 -10.501520172459287 19.447259578628305 -10.501520172459287
S 1232.990224299781 865.0684278101601 1232.990224299781 901.6292758179812
z" fill="none" stroke="none"></path>
        <circle cx="0" cy="0" r="7.893008836579511" fill="#191d3a" opacity="0.9">
            <animateMotion begin="-10.146679817064575s" dur="11.58s" repeatCount="indefinite">
                <mpath xlink:href="#path16"></mpath>
            </animateMotion>
        </circle><path id="path17" d="M 1136.3293290240315 46.611743458167304
c 0 22.00848924015058 -5.385055877909184 6.321587334936869 -11.706643212846053 6.321587334936869
S 1112.9160425983393 68.62023269831789 1112.9160425983393 46.611743458167304
s 5.385055877909184 -6.321587334936869 11.706643212846053 -6.321587334936869
S 1136.3293290240315 24.603254218016723 1136.3293290240315 46.611743458167304
z" fill="none" stroke="none"></path>
        <circle cx="0" cy="0" r="7.463905110450702" fill="#d9dbee" opacity="0.9">
            <animateMotion begin="-10.393834583482148s" dur="11.58s" repeatCount="indefinite">
                <mpath xlink:href="#path17"></mpath>
            </animateMotion>
        </circle><path id="path18" d="M 511.14365298583334 683.259136993896
c 0 29.779383424463447 -7.286444880453821 8.553652685750139 -15.840097566203962 8.553652685750139
S 479.46345785342544 713.0385204183594 479.46345785342544 683.259136993896
s 7.286444880453821 -8.553652685750139 15.840097566203962 -8.553652685750139
S 511.14365298583334 653.4797535694327 511.14365298583334 683.259136993896
z" fill="none" stroke="none"></path>
        <circle cx="0" cy="0" r="5.141455045985153" fill="#689cc5" opacity="0.9">
            <animateMotion begin="-3.3298115347961903s" dur="11.58s" repeatCount="indefinite">
                <mpath xlink:href="#path18"></mpath>
            </animateMotion>
        </circle><path id="path19" d="M 1110.0727596739864 104.90644221875519
c 0 34.416824186660314 -8.421137832906247 9.8856835429769 -18.306821375883146 9.8856835429769
S 1073.4591169222201 139.3232664054155 1073.4591169222201 104.90644221875519
s 8.421137832906247 -9.8856835429769 18.306821375883146 -9.8856835429769
S 1110.0727596739864 70.48961803209488 1110.0727596739864 104.90644221875519
z" fill="none" stroke="none"></path>
        <circle cx="0" cy="0" r="7.01857346704876" fill="#d9dbee" opacity="0.9">
            <animateMotion begin="-9.040333090875333s" dur="11.58s" repeatCount="indefinite">
                <mpath xlink:href="#path19"></mpath>
            </animateMotion>
        </circle><path id="path20" d="M 267.1427769217588 338.0528671146246
c 0 36.925399917213845 -9.03493827761615 10.606231891114614 -19.641170168730767 10.606231891114614
S 227.86043658429725 374.9782670318384 227.86043658429725 338.0528671146246
s 9.03493827761615 -10.606231891114614 19.641170168730767 -10.606231891114614
S 267.1427769217588 301.12746719741074 267.1427769217588 338.0528671146246
z" fill="none" stroke="none"></path>
        <circle cx="0" cy="0" r="7.0981210818679426" fill="#689cc5" opacity="0.9">
            <animateMotion begin="-5.196500512390268s" dur="11.58s" repeatCount="indefinite">
                <mpath xlink:href="#path20"></mpath>
            </animateMotion>
        </circle><path id="path21" d="M 921.9399641726092 139.05118796846222
c 0 25.010199002787495 -6.119516777277791 7.183780564630451 -13.303297341908243 7.183780564630451
S 895.3333694887928 164.0613869712497 895.3333694887928 139.05118796846222
s 6.119516777277791 -7.183780564630451 13.303297341908243 -7.183780564630451
S 921.9399641726092 114.04098896567473 921.9399641726092 139.05118796846222
z" fill="none" stroke="none"></path>
        <circle cx="0" cy="0" r="7.348320537871134" fill="#5e6fa3" opacity="0.9">
            <animateMotion begin="-8.464805654535022s" dur="11.58s" repeatCount="indefinite">
                <mpath xlink:href="#path21"></mpath>
            </animateMotion>
        </circle><path id="path22" d="M 399.94514698330784 753.1201081497659
c 0 26.73527174694636 -6.541609044465598 7.679280182633529 -14.220889227099127 7.679280182633529
S 371.5033685291096 779.8553798967123 371.5033685291096 753.1201081497659
s 6.541609044465598 -7.679280182633529 14.220889227099127 -7.679280182633529
S 399.94514698330784 726.3848364028195 399.94514698330784 753.1201081497659
z" fill="none" stroke="none"></path>
        <circle cx="0" cy="0" r="4.1447635087903905" fill="#191d3a" opacity="0.9">
            <animateMotion begin="-5.316340776122515s" dur="11.58s" repeatCount="indefinite">
                <mpath xlink:href="#path22"></mpath>
            </animateMotion>
        </circle><path id="path23" d="M 955.6264222946289 481.5498886098109
c 0 37.51628864089703 -9.179517433410973 10.775955247917231 -19.955472681328207 10.775955247917231
S 915.7154769319726 519.0661772507079 915.7154769319726 481.5498886098109
s 9.179517433410973 -10.775955247917231 19.955472681328207 -10.775955247917231
S 955.6264222946289 444.0335999689139 955.6264222946289 481.5498886098109
z" fill="none" stroke="none"></path>
        <circle cx="0" cy="0" r="5.445042927703839" fill="#191d3a" opacity="0.9">
            <animateMotion begin="-6.584462771874239s" dur="11.58s" repeatCount="indefinite">
                <mpath xlink:href="#path23"></mpath>
            </animateMotion>
        </circle><path id="path24" d="M 665.4865758341195 905.5159416457367
c 0 34.308493657095795 -8.394631426736204 9.854567327038154 -18.24919875377436 9.854567327038154
S 628.9881783265707 939.8244353028325 628.9881783265707 905.5159416457367
s 8.394631426736204 -9.854567327038154 18.24919875377436 -9.854567327038154
S 665.4865758341195 871.2074479886409 665.4865758341195 905.5159416457367
z" fill="none" stroke="none"></path>
        <circle cx="0" cy="0" r="6.499966996366482" fill="#d9dbee" opacity="0.9">
            <animateMotion begin="-9.393771811575611s" dur="11.58s" repeatCount="indefinite">
                <mpath xlink:href="#path24"></mpath>
            </animateMotion>
        </circle><path id="path25" d="M 368.66731545322403 714.3717251811742
c 0 31.669310498693545 -7.748873845425015 9.096504079411975 -16.845377924836992 9.096504079411975
S 334.97655960355 746.0410356798677 334.97655960355 714.3717251811742
s 7.748873845425015 -9.096504079411975 16.845377924836992 -9.096504079411975
S 368.66731545322403 682.7024146824806 368.66731545322403 714.3717251811742
z" fill="none" stroke="none"></path>
        <circle cx="0" cy="0" r="4.980018257883481" fill="#93dbe9" opacity="0.9">
            <animateMotion begin="-6.57818923420081s" dur="11.58s" repeatCount="indefinite">
                <mpath xlink:href="#path25"></mpath>
            </animateMotion>
        </circle><path id="path26" d="M 838.5213601009898 375.49449454442504
c 0 21.680832073187855 -5.304884443439581 6.227473042298639 -11.53235748573822 6.227473042298639
S 815.4566451295134 397.1753266176129 815.4566451295134 375.49449454442504
s 5.304884443439581 -6.227473042298639 11.53235748573822 -6.227473042298639
S 838.5213601009898 353.8136624712372 838.5213601009898 375.49449454442504
z" fill="none" stroke="none"></path>
        <circle cx="0" cy="0" r="6.6774277873168355" fill="#b3b7e2" opacity="0.9">
            <animateMotion begin="-4.76666702417282s" dur="11.58s" repeatCount="indefinite">
                <mpath xlink:href="#path26"></mpath>
            </animateMotion>
        </circle><path id="path27" d="M 690.9202820140433 595.0019652289365
c 0 21.88040321578101 -5.3537156804570545 6.28479666836263 -11.638512348819685 6.28479666836263
S 667.6432573164041 616.8823684447175 667.6432573164041 595.0019652289365
s 5.3537156804570545 -6.28479666836263 11.638512348819685 -6.28479666836263
S 690.9202820140433 573.1215620131554 690.9202820140433 595.0019652289365
z" fill="none" stroke="none"></path>
        <circle cx="0" cy="0" r="6.530291275653006" fill="#5e6fa3" opacity="0.9">
            <animateMotion begin="-7.444109003917466s" dur="11.58s" repeatCount="indefinite">
                <mpath xlink:href="#path27"></mpath>
            </animateMotion>
        </circle><path id="path28" d="M 647.1246324809994 770.6259491951655
c 0 34.751979943783255 -8.50314402879803 9.981951685980297 -18.485095714778325 9.981951685980297
S 610.1544410514426 805.3779291389487 610.1544410514426 770.6259491951655
s 8.50314402879803 -9.981951685980297 18.485095714778325 -9.981951685980297
S 647.1246324809994 735.8739692513823 647.1246324809994 770.6259491951655
z" fill="none" stroke="none"></path>
        <circle cx="0" cy="0" r="5.139951787837185" fill="#3b4368" opacity="0.9">
            <animateMotion begin="-6.277502063700285s" dur="11.58s" repeatCount="indefinite">
                <mpath xlink:href="#path28"></mpath>
            </animateMotion>
        </circle><path id="path29" d="M 1017.000150674269 54.006894123250355
c 0 34.604468795122834 -8.467050875402395 9.9395814624289 -18.406632337831294 9.9395814624289
S 980.1868859986064 88.61136291837319 980.1868859986064 54.006894123250355
s 8.467050875402395 -9.9395814624289 18.406632337831294 -9.9395814624289
S 1017.000150674269 19.40242532812752 1017.000150674269 54.006894123250355
z" fill="none" stroke="none"></path>
        <circle cx="0" cy="0" r="5.116347730853716" fill="#3b4368" opacity="0.9">
            <animateMotion begin="-0.19868553276685566s" dur="11.58s" repeatCount="indefinite">
                <mpath xlink:href="#path29"></mpath>
            </animateMotion>
        </circle><path id="path30" d="M 917.576234106042 910.3952554560641
c 0 27.603249501126232 -6.7539865800628 7.928592941812854 -14.682579521875654 7.928592941812854
S 888.2110750622905 937.9985049571903 888.2110750622905 910.3952554560641
s 6.7539865800628 -7.928592941812854 14.682579521875654 -7.928592941812854
S 917.576234106042 882.7920059549378 917.576234106042 910.3952554560641
z" fill="none" stroke="none"></path>
        <circle cx="0" cy="0" r="6.084160724660765" fill="#5e6fa3" opacity="0.9">
            <animateMotion begin="-5.6096494638277425s" dur="11.58s" repeatCount="indefinite">
                <mpath xlink:href="#path30"></mpath>
            </animateMotion>
        </circle><path id="path31" d="M 525.5737284855721 101.94191802686764
c 0 30.690873362427148 -7.509469014210897 8.81546362537801 -16.32493263958891 8.81546362537801
S 492.9238632063943 132.6327913892948 492.9238632063943 101.94191802686764
s 7.509469014210897 -8.81546362537801 16.32493263958891 -8.81546362537801
S 525.5737284855721 71.25104466444049 525.5737284855721 101.94191802686764
z" fill="none" stroke="none"></path>
        <circle cx="0" cy="0" r="5.424176813048865" fill="#3b4368" opacity="0.9">
            <animateMotion begin="-2.8260375451741377s" dur="11.58s" repeatCount="indefinite">
                <mpath xlink:href="#path31"></mpath>
            </animateMotion>
        </circle><path id="path32" d="M 102.1373356197065 480.8613414042158
c 0 31.953616420995527 -7.8184380604563515 9.178166418796588 -16.996604479252937 9.178166418796588
S 68.14412666120063 512.8149578252113 68.14412666120063 480.8613414042158
s 7.8184380604563515 -9.178166418796588 16.996604479252937 -9.178166418796588
S 102.1373356197065 448.9077249832203 102.1373356197065 480.8613414042158
z" fill="none" stroke="none"></path>
        <circle cx="0" cy="0" r="5.337958049105687" fill="#b3b7e2" opacity="0.9">
            <animateMotion begin="-4.942530489320766s" dur="11.58s" repeatCount="indefinite">
                <mpath xlink:href="#path32"></mpath>
            </animateMotion>
        </circle><path id="path33" d="M 988.5352381699519 618.3485131001862
c 0 26.088095625897736 -6.383257440379232 7.493389169140839 -13.876646609520071 7.493389169140839
S 960.7819449509117 644.4366087260839 960.7819449509117 618.3485131001862
s 6.383257440379232 -7.493389169140839 13.876646609520071 -7.493389169140839
S 988.5352381699519 592.2604174742885 988.5352381699519 618.3485131001862
z" fill="none" stroke="none"></path>
        <circle cx="0" cy="0" r="4.968836501828198" fill="#5e6fa3" opacity="0.9">
            <animateMotion begin="-9.674733466140175s" dur="11.58s" repeatCount="indefinite">
                <mpath xlink:href="#path33"></mpath>
            </animateMotion>
        </circle><path id="path34" d="M 1232.349707051111 112.93552136471511
c 0 26.772818277426598 -6.550795961497996 7.690064824367214 -14.24086078586521 7.690064824367214
S 1203.8679854793806 139.7083396421417 1203.8679854793806 112.93552136471511
s 6.550795961497996 -7.690064824367214 14.24086078586521 -7.690064824367214
S 1232.349707051111 86.16270308728852 1232.349707051111 112.93552136471511
z" fill="none" stroke="none"></path>
        <circle cx="0" cy="0" r="5.311512660726735" fill="#5e6fa3" opacity="0.9">
            <animateMotion begin="-10.297917215173229s" dur="11.58s" repeatCount="indefinite">
                <mpath xlink:href="#path34"></mpath>
            </animateMotion>
        </circle><path id="path35" d="M 1047.0953798999185 129.52458118397558
c 0 20.46016602658009 -5.006210836290872 5.876856199124069 -10.883067035414943 5.876856199124069
S 1025.3292458290884 149.98474721055567 1025.3292458290884 129.52458118397558
s 5.006210836290872 -5.876856199124069 10.883067035414943 -5.876856199124069
S 1047.0953798999185 109.0644151573955 1047.0953798999185 129.52458118397558
z" fill="none" stroke="none"></path>
        <circle cx="0" cy="0" r="4.404772828014953" fill="#3b4368" opacity="0.9">
            <animateMotion begin="-2.721240568952514s" dur="11.58s" repeatCount="indefinite">
                <mpath xlink:href="#path35"></mpath>
            </animateMotion>
        </circle><path id="path36" d="M 404.52590743029083 682.8367074457298
c 0 34.92207232294237 -8.544762376890153 10.03080800765366 -18.575570384543813 10.03080800765366
S 367.3747666612032 717.7587797686722 367.3747666612032 682.8367074457298
s 8.544762376890153 -10.03080800765366 18.575570384543813 -10.03080800765366
S 404.52590743029083 647.9146351227873 404.52590743029083 682.8367074457298
z" fill="none" stroke="none"></path>
        <circle cx="0" cy="0" r="6.620915312848439" fill="#d9dbee" opacity="0.9">
            <animateMotion begin="-8.304493502017584s" dur="11.58s" repeatCount="indefinite">
                <mpath xlink:href="#path36"></mpath>
            </animateMotion>
        </circle><path id="path37" d="M 601.8611060917624 876.0420300156032
c 0 19.49511248108903 -4.770080713457954 5.599659967972381 -10.369740681430335 5.599659967972381
S 581.1216247289017 895.5371424966922 581.1216247289017 876.0420300156032
s 4.770080713457954 -5.599659967972381 10.369740681430335 -5.599659967972381
S 601.8611060917624 856.5469175345143 601.8611060917624 876.0420300156032
z" fill="none" stroke="none"></path>
        <circle cx="0" cy="0" r="5.9924202512172435" fill="#d9dbee" opacity="0.9">
            <animateMotion begin="-2.7368821440728284s" dur="11.58s" repeatCount="indefinite">
                <mpath xlink:href="#path37"></mpath>
            </animateMotion>
        </circle><path id="path38" d="M 783.3823063443169 142.68595803303847
c 0 23.983586124852383 -5.86832426459154 6.8889023975639825 -12.757226662155523 6.8889023975639825
S 757.8678530200059 166.66954415789087 757.8678530200059 142.68595803303847
s 5.86832426459154 -6.8889023975639825 12.757226662155523 -6.8889023975639825
S 783.3823063443169 118.7023719081861 783.3823063443169 142.68595803303847
z" fill="none" stroke="none"></path>
        <circle cx="0" cy="0" r="6.529005728478182" fill="#191d3a" opacity="0.9">
            <animateMotion begin="-6.4532882478130515s" dur="11.58s" repeatCount="indefinite">
                <mpath xlink:href="#path38"></mpath>
            </animateMotion>
        </circle><path id="path39" d="M 1137.6234173258629 632.2646700061805
c 0 32.56886155105236 -7.968976762491533 9.354885764663974 -17.323862527155505 9.354885764663974
S 1102.9756922715517 664.8335315572328 1102.9756922715517 632.2646700061805
s 7.968976762491533 -9.354885764663974 17.323862527155505 -9.354885764663974
S 1137.6234173258629 599.6958084551281 1137.6234173258629 632.2646700061805
z" fill="none" stroke="none"></path>
        <circle cx="0" cy="0" r="4.753692573878504" fill="#b3b7e2" opacity="0.9">
            <animateMotion begin="-4.517827615423186s" dur="11.58s" repeatCount="indefinite">
                <mpath xlink:href="#path39"></mpath>
            </animateMotion>
        </circle><path id="path40" d="M 535.5093689488867 13.222951744458577
c 0 25.482202802694015 -6.235007068744279 7.319356124178068 -13.554363192922347 7.319356124178068
S 508.4006425630421 38.70515454715259 508.4006425630421 13.222951744458577
s 6.235007068744279 -7.319356124178068 13.554363192922347 -7.319356124178068
S 535.5093689488867 -12.259251058235439 535.5093689488867 13.222951744458577
z" fill="none" stroke="none"></path>
        <circle cx="0" cy="0" r="7.331748298147092" fill="#93dbe9" opacity="0.9">
            <animateMotion begin="-7.917899610236227s" dur="11.58s" repeatCount="indefinite">
                <mpath xlink:href="#path40"></mpath>
            </animateMotion>
        </circle><path id="path41" d="M 438.7869039386852 94.35015107904871
c 0 29.53028633697424 -7.22549559308944 8.482103522322388 -15.707599115411828 8.482103522322388
S 407.37170570786157 123.88043741602296 407.37170570786157 94.35015107904871
s 7.22549559308944 -8.482103522322388 15.707599115411828 -8.482103522322388
S 438.7869039386852 64.81986474207447 438.7869039386852 94.35015107904871
z" fill="none" stroke="none"></path>
        <circle cx="0" cy="0" r="6.2136377416551705" fill="#5e6fa3" opacity="0.9">
            <animateMotion begin="-9.475544988497917s" dur="11.58s" repeatCount="indefinite">
                <mpath xlink:href="#path41"></mpath>
            </animateMotion>
        </circle><path id="path42" d="M 953.1993848280568 895.3672615353802
c 0 30.862686737798832 -7.551508457120989 8.864814275750728 -16.416322732871716 8.864814275750728
S 920.3667393623135 926.229948273179 920.3667393623135 895.3672615353802
s 7.551508457120989 -8.864814275750728 16.416322732871716 -8.864814275750728
S 953.1993848280568 864.5045747975813 953.1993848280568 895.3672615353802
z" fill="none" stroke="none"></path>
        <circle cx="0" cy="0" r="7.855395822226396" fill="#3b4368" opacity="0.9">
            <animateMotion begin="-2.896020213306775s" dur="11.58s" repeatCount="indefinite">
                <mpath xlink:href="#path42"></mpath>
            </animateMotion>
        </circle><path id="path43" d="M 667.6378211832789 516.9906372425119
c 0 22.09588670062271 -5.406440362918323 6.346690860817162 -11.753131223735485 6.346690860817162
S 644.1315587358079 539.0865239431346 644.1315587358079 516.9906372425119
s 5.406440362918323 -6.346690860817162 11.753131223735485 -6.346690860817162
S 667.6378211832789 494.89475054188915 667.6378211832789 516.9906372425119
z" fill="none" stroke="none"></path>
        <circle cx="0" cy="0" r="5.634373527878227" fill="#b3b7e2" opacity="0.9">
            <animateMotion begin="-9.636085389952157s" dur="11.58s" repeatCount="indefinite">
                <mpath xlink:href="#path43"></mpath>
            </animateMotion>
        </circle><path id="path44" d="M 200.94387892827484 520.7019901612357
c 0 27.77936041303917 -6.797077547871286 7.979177990979337 -14.776255538850622 7.979177990979337
S 171.3913678505736 548.4813505742749 171.3913678505736 520.7019901612357
s 6.797077547871286 -7.979177990979337 14.776255538850622 -7.979177990979337
S 200.94387892827484 492.9226297481965 200.94387892827484 520.7019901612357
z" fill="none" stroke="none"></path>
        <circle cx="0" cy="0" r="4.096672469246178" fill="#191d3a" opacity="0.9">
            <animateMotion begin="-4.89875494486301s" dur="11.58s" repeatCount="indefinite">
                <mpath xlink:href="#path44"></mpath>
            </animateMotion>
        </circle><path id="path45" d="M 246.11767860986004 361.94576374757037
c 0 27.47099834416693 -6.721627254423822 7.890605907367097 -14.61223316179092 7.890605907367097
S 216.89321228627819 389.41676209173727 216.89321228627819 361.94576374757037
s 6.721627254423822 -7.890605907367097 14.61223316179092 -7.890605907367097
S 246.11767860986004 334.47476540340347 246.11767860986004 361.94576374757037
z" fill="none" stroke="none"></path>
        <circle cx="0" cy="0" r="7.413015955993863" fill="#93dbe9" opacity="0.9">
            <animateMotion begin="-10.36295354967337s" dur="11.58s" repeatCount="indefinite">
                <mpath xlink:href="#path45"></mpath>
            </animateMotion>
        </circle><path id="path46" d="M 626.5713603153407 885.0355518309777
c 0 35.551539860879096 -8.698781029789565 10.21161251323123 -18.910393543020795 10.21161251323123
S 588.7505732292992 920.5870916918568 588.7505732292992 885.0355518309777
s 8.698781029789565 -10.21161251323123 18.910393543020795 -10.21161251323123
S 626.5713603153407 849.4840119700987 626.5713603153407 885.0355518309777
z" fill="none" stroke="none"></path>
        <circle cx="0" cy="0" r="6.899551379110499" fill="#3b4368" opacity="0.9">
            <animateMotion begin="-8.398093022770938s" dur="11.58s" repeatCount="indefinite">
                <mpath xlink:href="#path46"></mpath>
            </animateMotion>
        </circle><path id="path47" d="M 412.1832953026772 272.8339565207039
c 0 31.751166959647477 -7.768902553956297 9.120016041600872 -16.88891859555717 9.120016041600872
S 378.40545811156284 304.5851234803514 378.40545811156284 272.8339565207039
s 7.768902553956297 -9.120016041600872 16.88891859555717 -9.120016041600872
S 412.1832953026772 241.08278956105642 412.1832953026772 272.8339565207039
z" fill="none" stroke="none"></path>
        <circle cx="0" cy="0" r="4.765007172326361" fill="#93dbe9" opacity="0.9">
            <animateMotion begin="-4.660466530331426s" dur="11.58s" repeatCount="indefinite">
                <mpath xlink:href="#path47"></mpath>
            </animateMotion>
        </circle><path id="path48" d="M 854.5448376444768 340.29354888497255
c 0 27.982526914606417 -6.84678850038242 8.037534326535885 -14.884322826918305 8.037534326535885
S 824.7761919906403 368.27607579957896 824.7761919906403 340.29354888497255
s 6.84678850038242 -8.037534326535885 14.884322826918305 -8.037534326535885
S 854.5448376444768 312.31102197036614 854.5448376444768 340.29354888497255
z" fill="none" stroke="none"></path>
        <circle cx="0" cy="0" r="4.095240419245749" fill="#b3b7e2" opacity="0.9">
            <animateMotion begin="-4.39636845600818s" dur="11.58s" repeatCount="indefinite">
                <mpath xlink:href="#path48"></mpath>
            </animateMotion>
        </circle><path id="path49" d="M 1009.9750287280061 236.72395848333494
c 0 31.934638550723204 -7.81379453900674 9.172715328399219 -16.98650986740596 9.172715328399219
S 976.0020089931942 268.6585970340581 976.0020089931942 236.72395848333494
s 7.81379453900674 -9.172715328399219 16.98650986740596 -9.172715328399219
S 1009.9750287280061 204.78931993261173 1009.9750287280061 236.72395848333494
z" fill="none" stroke="none"></path>
        <circle cx="0" cy="0" r="7.292539730116924" fill="#d9dbee" opacity="0.9">
            <animateMotion begin="-2.6116830040120775s" dur="11.58s" repeatCount="indefinite">
                <mpath xlink:href="#path49"></mpath>
            </animateMotion>
        </circle><path id="path50" d="M 145.14371505590694 870.268285017528
c 0 31.725119770075505 -7.762529305444006 9.112534402042964 -16.87506370748697 9.112534402042964
S 111.393587640933 901.9934047876035 111.393587640933 870.268285017528
s 7.762529305444006 -9.112534402042964 16.87506370748697 -9.112534402042964
S 145.14371505590694 838.5431652474525 145.14371505590694 870.268285017528
z" fill="none" stroke="none"></path>
        <circle cx="0" cy="0" r="6.414936964616429" fill="#5e6fa3" opacity="0.9">
            <animateMotion begin="-7.709142863550428s" dur="11.58s" repeatCount="indefinite">
                <mpath xlink:href="#path50"></mpath>
            </animateMotion>
        </circle><path id="path51" d="M 26.979095765751758 102.929785479183
c 0 28.643500213894782 -7.008516009782766 8.227388359310204 -15.23590436909297 8.227388359310204
S -3.4927129724341786 131.57328569307776 -3.4927129724341786 102.929785479183
s 7.008516009782766 -8.227388359310204 15.23590436909297 -8.227388359310204
S 26.979095765751758 74.28628526528821 26.979095765751758 102.929785479183
z" fill="none" stroke="none"></path>
        <circle cx="0" cy="0" r="4.634465671857549" fill="#d9dbee" opacity="0.9">
            <animateMotion begin="-9.712751008705084s" dur="11.58s" repeatCount="indefinite">
                <mpath xlink:href="#path51"></mpath>
            </animateMotion>
        </circle><path id="path52" d="M 90.63374416417226 379.23865492457776
c 0 28.102591402422508 -6.876165981443805 8.07202093473838 -14.948186916182184 8.07202093473838
S 60.737370331807895 407.34124632700025 60.737370331807895 379.23865492457776
s 6.876165981443805 -8.07202093473838 14.948186916182184 -8.07202093473838
S 90.63374416417226 351.13606352215527 90.63374416417226 379.23865492457776
z" fill="none" stroke="none"></path>
        <circle cx="0" cy="0" r="6.941617741192304" fill="#5e6fa3" opacity="0.9">
            <animateMotion begin="-2.5334222277298157s" dur="11.58s" repeatCount="indefinite">
                <mpath xlink:href="#path52"></mpath>
            </animateMotion>
        </circle><path id="path53" d="M 495.4035941899195 341.3631486789543
c 0 35.93043369493565 -8.79148909556936 10.320443720885772 -19.111932816455134 10.320443720885772
S 457.17972855700924 377.29358237388993 457.17972855700924 341.3631486789543
s 8.79148909556936 -10.320443720885772 19.111932816455134 -10.320443720885772
S 495.4035941899195 305.4327149840187 495.4035941899195 341.3631486789543
z" fill="none" stroke="none"></path>
        <circle cx="0" cy="0" r="6.006246418912587" fill="#93dbe9" opacity="0.9">
            <animateMotion begin="-8.581842939021959s" dur="11.58s" repeatCount="indefinite">
                <mpath xlink:href="#path53"></mpath>
            </animateMotion>
        </circle><path id="path54" d="M 293.132529630794 136.68247004372873
c 0 32.61502345152828 -7.980271695586707 9.368145033949613 -17.34841672953632 9.368145033949613
S 258.43569617172136 169.29749349525702 258.43569617172136 136.68247004372873
s 7.980271695586707 -9.368145033949613 17.34841672953632 -9.368145033949613
S 293.132529630794 104.06744659220044 293.132529630794 136.68247004372873
z" fill="none" stroke="none"></path>
        <circle cx="0" cy="0" r="4.428836297784756" fill="#5e6fa3" opacity="0.9">
            <animateMotion begin="-4.651167816353304s" dur="11.58s" repeatCount="indefinite">
                <mpath xlink:href="#path54"></mpath>
            </animateMotion>
        </circle><path id="path55" d="M 580.648640396563 125.42339962955143
c 0 27.523790148408892 -6.734544398014941 7.905769510713192 -14.640313908728134 7.905769510713192
S 551.3680125791068 152.94718977796032 551.3680125791068 125.42339962955143
s 6.734544398014941 -7.905769510713192 14.640313908728134 -7.905769510713192
S 580.648640396563 97.89960948114253 580.648640396563 125.42339962955143
z" fill="none" stroke="none"></path>
        <circle cx="0" cy="0" r="7.644218063688706" fill="#689cc5" opacity="0.9">
            <animateMotion begin="-2.154385794550242s" dur="11.58s" repeatCount="indefinite">
                <mpath xlink:href="#path55"></mpath>
            </animateMotion>
        </circle><path id="path56" d="M 159.7661968262312 879.7931289091268
c 0 27.902871428423545 -6.827298328231292 8.01465455922804 -14.841952887459332 8.01465455922804
S 130.08229105131252 907.6960003375503 130.08229105131252 879.7931289091268
s 6.827298328231292 -8.01465455922804 14.841952887459332 -8.01465455922804
S 159.7661968262312 851.8902574807033 159.7661968262312 879.7931289091268
z" fill="none" stroke="none"></path>
        <circle cx="0" cy="0" r="6.79532476753885" fill="#5e6fa3" opacity="0.9">
            <animateMotion begin="-9.312083395381475s" dur="11.58s" repeatCount="indefinite">
                <mpath xlink:href="#path56"></mpath>
            </animateMotion>
        </circle><path id="path57" d="M 109.31826103286176 186.80933411623224
c 0 19.0453639048836 -4.660035849067263 5.470476866296354 -10.130512715363619 5.470476866296354
S 89.05723560213451 205.85469802111584 89.05723560213451 186.80933411623224
s 4.660035849067263 -5.470476866296354 10.130512715363619 -5.470476866296354
S 109.31826103286176 167.76397021134864 109.31826103286176 186.80933411623224
z" fill="none" stroke="none"></path>
        <circle cx="0" cy="0" r="6.966713249372898" fill="#191d3a" opacity="0.9">
            <animateMotion begin="-7.453257158590263s" dur="11.58s" repeatCount="indefinite">
                <mpath xlink:href="#path57"></mpath>
            </animateMotion>
        </circle><path id="path58" d="M 615.3662666281443 870.8582422672326
c 0 25.278906894827667 -6.185264452989747 7.2609626187270955 -13.446227071716843 7.2609626187270955
S 588.4738124847106 896.1371491620603 588.4738124847106 870.8582422672326
s 6.185264452989747 -7.2609626187270955 13.446227071716843 -7.2609626187270955
S 615.3662666281443 845.579335372405 615.3662666281443 870.8582422672326
z" fill="none" stroke="none"></path>
        <circle cx="0" cy="0" r="5.441242204612931" fill="#b3b7e2" opacity="0.9">
            <animateMotion begin="-5.015391654824012s" dur="11.58s" repeatCount="indefinite">
                <mpath xlink:href="#path58"></mpath>
            </animateMotion>
        </circle><path id="path59" d="M 1222.9616402773097 495.35124247728186
c 0 30.223026498809467 -7.39499584545338 8.681082079445273 -16.07607792489865 8.681082079445273
S 1190.8094844275122 525.5742689760913 1190.8094844275122 495.35124247728186
s 7.39499584545338 -8.681082079445273 16.07607792489865 -8.681082079445273
S 1222.9616402773097 465.1282159784724 1222.9616402773097 495.35124247728186
z" fill="none" stroke="none"></path>
        <circle cx="0" cy="0" r="7.092799856219555" fill="#689cc5" opacity="0.9">
            <animateMotion begin="-3.2628015615788053s" dur="11.58s" repeatCount="indefinite">
                <mpath xlink:href="#path59"></mpath>
            </animateMotion>
        </circle><path id="path60" d="M 576.1482729736998 753.3814570124362
c 0 34.65418713160844 -8.47921600028717 9.953862261206678 -18.43307826149385 9.953862261206678
S 539.2821164507121 788.0356441440446 539.2821164507121 753.3814570124362
s 8.47921600028717 -9.953862261206678 18.43307826149385 -9.953862261206678
S 576.1482729736998 718.7272698808277 576.1482729736998 753.3814570124362
z" fill="none" stroke="none"></path>
        <circle cx="0" cy="0" r="6.194501076996965" fill="#b3b7e2" opacity="0.9">
            <animateMotion begin="-11.520842836122117s" dur="11.58s" repeatCount="indefinite">
                <mpath xlink:href="#path60"></mpath>
            </animateMotion>
        </circle><path id="path61" d="M 277.1837656970345 485.9250939768338
c 0 36.75178757564088 -8.992458662124895 10.556364516407488 -19.54882317853238 10.556364516407488
S 238.08611933996977 522.6768815524747 238.08611933996977 485.9250939768338
s 8.992458662124895 -10.556364516407488 19.54882317853238 -10.556364516407488
S 277.1837656970345 449.1733064011929 277.1837656970345 485.9250939768338
z" fill="none" stroke="none"></path>
        <circle cx="0" cy="0" r="4.364113418606463" fill="#d9dbee" opacity="0.9">
            <animateMotion begin="-3.4079590051797624s" dur="11.58s" repeatCount="indefinite">
                <mpath xlink:href="#path61"></mpath>
            </animateMotion>
        </circle><path id="path62" d="M 557.0511444549323 185.96129223436955
c 0 33.30056529458293 -8.148010657185184 9.565055988869565 -17.71306664605475 9.565055988869565
S 521.625011162823 219.26185752895248 521.625011162823 185.96129223436955
s 8.148010657185184 -9.565055988869565 17.71306664605475 -9.565055988869565
S 557.0511444549323 152.66072693978663 557.0511444549323 185.96129223436955
z" fill="none" stroke="none"></path>
        <circle cx="0" cy="0" r="5.12377524357044" fill="#b3b7e2" opacity="0.9">
            <animateMotion begin="-4.878398155898616s" dur="11.58s" repeatCount="indefinite">
                <mpath xlink:href="#path62"></mpath>
            </animateMotion>
        </circle><path id="path63" d="M 247.60375944667658 88.31530570605986
c 0 28.788682254590032 -7.044039275059262 8.269089583765222 -15.313128858824484 8.269089583765222
S 216.9775017290276 117.10398796064989 216.9775017290276 88.31530570605986
s 7.044039275059262 -8.269089583765222 15.313128858824484 -8.269089583765222
S 247.60375944667658 59.52662345146983 247.60375944667658 88.31530570605986
z" fill="none" stroke="none"></path>
        <circle cx="0" cy="0" r="7.273202410795624" fill="#5e6fa3" opacity="0.9">
            <animateMotion begin="-4.334837716856691s" dur="11.58s" repeatCount="indefinite">
                <mpath xlink:href="#path63"></mpath>
            </animateMotion>
        </circle><path id="path64" d="M 207.7962988842119 529.5147592249358
c 0 34.873299533133775 -8.532828609171029 10.016798802070339 -18.549627411241367 10.016798802070339
S 170.69704406172914 564.3880587580695 170.69704406172914 529.5147592249358
s 8.532828609171029 -10.016798802070339 18.549627411241367 -10.016798802070339
S 207.7962988842119 494.641459691802 207.7962988842119 529.5147592249358
z" fill="none" stroke="none"></path>
        <circle cx="0" cy="0" r="6.806042868916878" fill="#3b4368" opacity="0.9">
            <animateMotion begin="-0.9526989805530661s" dur="11.58s" repeatCount="indefinite">
                <mpath xlink:href="#path64"></mpath>
            </animateMotion>
        </circle><path id="path65" d="M 649.2147489017476 630.2527319676635
c 0 35.77313174383788 -8.753000320300757 10.275261245570455 -19.02826156587121 10.275261245570455
S 611.1582257700053 666.0258637115014 611.1582257700053 630.2527319676635
s 8.753000320300757 -10.275261245570455 19.02826156587121 -10.275261245570455
S 649.2147489017476 594.4796002238256 649.2147489017476 630.2527319676635
z" fill="none" stroke="none"></path>
        <circle cx="0" cy="0" r="5.937146255306097" fill="#689cc5" opacity="0.9">
            <animateMotion begin="-5.388738689575649s" dur="11.58s" repeatCount="indefinite">
                <mpath xlink:href="#path65"></mpath>
            </animateMotion>
        </circle><path id="path66" d="M 50.842116486686336 807.1909583655768
c 0 24.427713108397974 -5.976993632905886 7.016470786454737 -12.993464419360624 7.016470786454737
S 24.855187647965085 831.6186714739747 24.855187647965085 807.1909583655768
s 5.976993632905886 -7.016470786454737 12.993464419360624 -7.016470786454737
S 50.842116486686336 782.7632452571788 50.842116486686336 807.1909583655768
z" fill="none" stroke="none"></path>
        <circle cx="0" cy="0" r="6.385265990688359" fill="#689cc5" opacity="0.9">
            <animateMotion begin="-6.73233259308133s" dur="11.58s" repeatCount="indefinite">
                <mpath xlink:href="#path66"></mpath>
            </animateMotion>
        </circle><path id="path67" d="M 47.42464834675883 47.68120108691312
c 0 25.694325226778364 -6.28690936399896 7.3802849055639985 -13.667194269562959 7.3802849055639985
S 20.090259807632915 73.37552631369148 20.090259807632915 47.68120108691312
s 6.28690936399896 -7.3802849055639985 13.667194269562959 -7.3802849055639985
S 47.42464834675883 21.986875860134756 47.42464834675883 47.68120108691312
z" fill="none" stroke="none"></path>
        <circle cx="0" cy="0" r="5.0816884726085485" fill="#689cc5" opacity="0.9">
            <animateMotion begin="-10.919147471104944s" dur="11.58s" repeatCount="indefinite">
                <mpath xlink:href="#path67"></mpath>
            </animateMotion>
        </circle><path id="path68" d="M 193.31546419560667 153.10904269646178
c 0 22.794733578477352 -5.577434811755096 6.547423474669027 -12.124858286424123 6.547423474669027
S 169.06574762275844 175.90377627493913 169.06574762275844 153.10904269646178
s 5.577434811755096 -6.547423474669027 12.124858286424123 -6.547423474669027
S 193.31546419560667 130.31430911798444 193.31546419560667 153.10904269646178
z" fill="none" stroke="none"></path>
        <circle cx="0" cy="0" r="7.361690347175032" fill="#d9dbee" opacity="0.9">
            <animateMotion begin="-9.931427175610276s" dur="11.58s" repeatCount="indefinite">
                <mpath xlink:href="#path68"></mpath>
            </animateMotion>
        </circle><path id="path69" d="M 554.4348910584906 627.9316035820918
c 0 30.85714657050372 -7.550152884272186 8.863222951102133 -16.413375835374318 8.863222951102133
S 521.6081393877421 658.7887501525955 521.6081393877421 627.9316035820918
s 7.550152884272186 -8.863222951102133 16.413375835374318 -8.863222951102133
S 554.4348910584906 597.0744570115882 554.4348910584906 627.9316035820918
z" fill="none" stroke="none"></path>
        <circle cx="0" cy="0" r="7.037810943249333" fill="#5e6fa3" opacity="0.9">
            <animateMotion begin="-3.7184008856671626s" dur="11.58s" repeatCount="indefinite">
                <mpath xlink:href="#path69"></mpath>
            </animateMotion>
        </circle><path id="path70" d="M 634.3630942123305 389.7212142378066
c 0 24.997469322478008 -6.116402068265895 7.180124167094747 -13.296526235360641 7.180124167094747
S 607.7700417416092 414.7186835602846 607.7700417416092 389.7212142378066
s 6.116402068265895 -7.180124167094747 13.296526235360641 -7.180124167094747
S 634.3630942123305 364.72374491532855 634.3630942123305 389.7212142378066
z" fill="none" stroke="none"></path>
        <circle cx="0" cy="0" r="6.154262689076206" fill="#3b4368" opacity="0.9">
            <animateMotion begin="-6.47277512152003s" dur="11.58s" repeatCount="indefinite">
                <mpath xlink:href="#path70"></mpath>
            </animateMotion>
        </circle><path id="path71" d="M 1047.2743729941863 228.17748655027333
c 0 34.53242127668672 -8.44942222727441 9.91888696245257 -18.36830918972698 9.91888696245257
S 1010.5377546147323 262.70990782696003 1010.5377546147323 228.17748655027333
s 8.44942222727441 -9.91888696245257 18.36830918972698 -9.91888696245257
S 1047.2743729941863 193.64506527358662 1047.2743729941863 228.17748655027333
z" fill="none" stroke="none"></path>
        <circle cx="0" cy="0" r="7.229748195474866" fill="#689cc5" opacity="0.9">
            <animateMotion begin="-4.541599362794049s" dur="11.58s" repeatCount="indefinite">
                <mpath xlink:href="#path71"></mpath>
            </animateMotion>
        </circle><path id="path72" d="M 435.79327922557707 621.6607192521863
c 0 22.08363637828623 -5.403442943623225 6.343172151209874 -11.7466150948331 6.343172151209874
S 412.3000490359109 643.7443556304725 412.3000490359109 621.6607192521863
s 5.403442943623225 -6.343172151209874 11.7466150948331 -6.343172151209874
S 435.79327922557707 599.5770828739 435.79327922557707 621.6607192521863
z" fill="none" stroke="none"></path>
        <circle cx="0" cy="0" r="6.2807285770804375" fill="#d9dbee" opacity="0.9">
            <animateMotion begin="-0.16944253639782908s" dur="11.58s" repeatCount="indefinite">
                <mpath xlink:href="#path72"></mpath>
            </animateMotion>
        </circle><path id="path73" d="M 457.41038729375833 100.95370970588222
c 0 29.159412594185657 -7.134749890066702 8.375575957904392 -15.510325847971094 8.375575957904392
S 426.3897355978161 130.1131223000679 426.3897355978161 100.95370970588222
s 7.134749890066702 -8.375575957904392 15.510325847971094 -8.375575957904392
S 457.41038729375833 71.79429711169657 457.41038729375833 100.95370970588222
z" fill="none" stroke="none"></path>
        <circle cx="0" cy="0" r="5.729936366007851" fill="#d9dbee" opacity="0.9">
            <animateMotion begin="-5.004409131485263s" dur="11.58s" repeatCount="indefinite">
                <mpath xlink:href="#path73"></mpath>
            </animateMotion>
        </circle><path id="path74" d="M 595.182942245963 870.1271887610653
c 0 34.19819029364538 -8.367642305891954 9.822884446047077 -18.190526751939032 9.822884446047077
S 558.8018887420849 904.3253790547108 558.8018887420849 870.1271887610653
s 8.367642305891954 -9.822884446047077 18.190526751939032 -9.822884446047077
S 595.182942245963 835.9289984674199 595.182942245963 870.1271887610653
z" fill="none" stroke="none"></path>
        <circle cx="0" cy="0" r="7.069026447057043" fill="#5e6fa3" opacity="0.9">
            <animateMotion begin="-4.9861069236297935s" dur="11.58s" repeatCount="indefinite">
                <mpath xlink:href="#path74"></mpath>
            </animateMotion>
        </circle><path id="path75" d="M 27.552617802059792 427.1170839986003
c 0 29.514708652333848 -7.221684031954026 8.47762908098951 -15.699313112943535 8.47762908098951
S -3.8460084238272785 456.6317926509342 -3.8460084238272785 427.1170839986003
s 7.221684031954026 -8.47762908098951 15.699313112943535 -8.47762908098951
S 27.552617802059792 397.60237534626646 27.552617802059792 427.1170839986003
z" fill="none" stroke="none"></path>
        <circle cx="0" cy="0" r="6.078540433028146" fill="#93dbe9" opacity="0.9">
            <animateMotion begin="-8.803512032542978s" dur="11.58s" repeatCount="indefinite">
                <mpath xlink:href="#path75"></mpath>
            </animateMotion>
        </circle><path id="path76" d="M 1255.7303799863146 284.96768569130256
c 0 21.97992805869554 -5.378067503723376 6.313383591327442 -11.691451095050818 6.313383591327442
S 1232.347477796213 306.9476137499981 1232.347477796213 284.96768569130256
s 5.378067503723376 -6.313383591327442 11.691451095050818 -6.313383591327442
S 1255.7303799863146 262.98775763260704 1255.7303799863146 284.96768569130256
z" fill="none" stroke="none"></path>
        <circle cx="0" cy="0" r="4.9954355477187375" fill="#93dbe9" opacity="0.9">
            <animateMotion begin="-1.8032811499812016s" dur="11.58s" repeatCount="indefinite">
                <mpath xlink:href="#path76"></mpath>
            </animateMotion>
        </circle><path id="path77" d="M 721.8253695926596 304.95455941914855
c 0 25.487012216267836 -6.236183840150639 7.320737551481187 -13.556921391631827 7.320737551481187
S 694.711526809396 330.4415716354164 694.711526809396 304.95455941914855
s 6.236183840150639 -7.320737551481187 13.556921391631827 -7.320737551481187
S 721.8253695926596 279.4675472028807 721.8253695926596 304.95455941914855
z" fill="none" stroke="none"></path>
        <circle cx="0" cy="0" r="4.453182336061706" fill="#191d3a" opacity="0.9">
            <animateMotion begin="-2.0028109387260864s" dur="11.58s" repeatCount="indefinite">
                <mpath xlink:href="#path77"></mpath>
            </animateMotion>
        </circle><path id="path78" d="M 282.68211236379534 754.17680935883
c 0 29.43230786137538 -7.201522136293975 8.453960768692928 -15.655482904986904 8.453960768692928
S 251.37114655382152 783.6091172202055 251.37114655382152 754.17680935883
s 7.201522136293975 -8.453960768692928 15.655482904986904 -8.453960768692928
S 282.68211236379534 724.7445014974546 282.68211236379534 754.17680935883
z" fill="none" stroke="none"></path>
        <circle cx="0" cy="0" r="5.371509958421777" fill="#b3b7e2" opacity="0.9">
            <animateMotion begin="-6.0179961106972515s" dur="11.58s" repeatCount="indefinite">
                <mpath xlink:href="#path78"></mpath>
            </animateMotion>
        </circle><path id="path79" d="M 670.2554102381273 695.2692035997246
c 0 30.490944421961 -7.46055023090535 8.758037227584543 -16.218587458489893 8.758037227584543
S 637.8182353211475 725.7601480216856 637.8182353211475 695.2692035997246
s 7.46055023090535 -8.758037227584543 16.218587458489893 -8.758037227584543
S 670.2554102381273 664.7782591777636 670.2554102381273 695.2692035997246
z" fill="none" stroke="none"></path>
        <circle cx="0" cy="0" r="4.331448305836429" fill="#191d3a" opacity="0.9">
            <animateMotion begin="-3.035510489623585s" dur="11.58s" repeatCount="indefinite">
                <mpath xlink:href="#path79"></mpath>
            </animateMotion>
        </circle><path id="path80" d="M 1255.1738616288899 31.227670671150392
c 0 31.98908513625135 -7.827116575891288 9.188354241263687 -17.015470817154974 9.188354241263687
S 1221.14291999458 63.21675580740174 1221.14291999458 31.227670671150392
s 7.827116575891288 -9.188354241263687 17.015470817154974 -9.188354241263687
S 1255.1738616288899 -0.7614144651009589 1255.1738616288899 31.227670671150392
z" fill="none" stroke="none"></path>
        <circle cx="0" cy="0" r="4.3953147423752" fill="#5e6fa3" opacity="0.9">
            <animateMotion begin="-7.260450364269724s" dur="11.58s" repeatCount="indefinite">
                <mpath xlink:href="#path80"></mpath>
            </animateMotion>
        </circle><path id="path81" d="M 320.09903651477185 543.7584874443745
c 0 19.16420032986222 -4.689112846668414 5.5046107330455305 -10.193723579713945 5.5046107330455305
S 299.71158935534396 562.9226877742367 299.71158935534396 543.7584874443745
s 4.689112846668414 -5.5046107330455305 10.193723579713945 -5.5046107330455305
S 320.09903651477185 524.5942871145123 320.09903651477185 543.7584874443745
z" fill="none" stroke="none"></path>
        <circle cx="0" cy="0" r="6.017584487626224" fill="#5e6fa3" opacity="0.9">
            <animateMotion begin="-3.0417617632191756s" dur="11.58s" repeatCount="indefinite">
                <mpath xlink:href="#path81"></mpath>
            </animateMotion>
        </circle><path id="path82" d="M 1208.0684766236102 19.61752376061542
c 0 33.85257815108026 -8.283077632711127 9.723612873182628 -18.006690505893754 9.723612873182628
S 1172.0550956118225 53.47010191169568 1172.0550956118225 19.61752376061542
s 8.283077632711127 -9.723612873182628 18.006690505893754 -9.723612873182628
S 1208.0684766236102 -14.235054390464839 1208.0684766236102 19.61752376061542
z" fill="none" stroke="none"></path>
        <circle cx="0" cy="0" r="4.557869668103498" fill="#191d3a" opacity="0.9">
            <animateMotion begin="-6.698172274667006s" dur="11.58s" repeatCount="indefinite">
                <mpath xlink:href="#path82"></mpath>
            </animateMotion>
        </circle><path id="path83" d="M 676.0978267999747 525.8345649002267
c 0 25.00743908748422 -6.118841478852521 7.182987823000786 -13.301829301853306 7.182987823000786
S 649.494168196268 550.842003987711 649.494168196268 525.8345649002267
s 6.118841478852521 -7.182987823000786 13.301829301853306 -7.182987823000786
S 676.0978267999747 500.8271258127425 676.0978267999747 525.8345649002267
z" fill="none" stroke="none"></path>
        <circle cx="0" cy="0" r="4.218060650852345" fill="#5e6fa3" opacity="0.9">
            <animateMotion begin="-1.8188864348911822s" dur="11.58s" repeatCount="indefinite">
                <mpath xlink:href="#path83"></mpath>
            </animateMotion>
        </circle><path id="path84" d="M 817.1405083691983 328.8334870890281
c 0 37.20430457266436 -9.10318090607745 10.686342802786571 -19.78952370886402 10.686342802786571
S 777.5614609514702 366.03779166169244 777.5614609514702 328.8334870890281
s 9.10318090607745 -10.686342802786571 19.78952370886402 -10.686342802786571
S 817.1405083691983 291.62918251636376 817.1405083691983 328.8334870890281
z" fill="none" stroke="none"></path>
        <circle cx="0" cy="0" r="5.308226736086927" fill="#3b4368" opacity="0.9">
            <animateMotion begin="-2.609552930928006s" dur="11.58s" repeatCount="indefinite">
                <mpath xlink:href="#path84"></mpath>
            </animateMotion>
        </circle><path id="path85" d="M 830.9110258460464 537.9209857120802
c 0 34.45429009526009 -8.43030502330832 9.89644502736194 -18.32675005067026 9.89644502736194
S 794.2575257447058 572.3752758073404 794.2575257447058 537.9209857120802
s 8.43030502330832 -9.89644502736194 18.32675005067026 -9.89644502736194
S 830.9110258460464 503.4666956168201 830.9110258460464 537.9209857120802
z" fill="none" stroke="none"></path>
        <circle cx="0" cy="0" r="5.680751268808086" fill="#93dbe9" opacity="0.9">
            <animateMotion begin="-8.836926054526566s" dur="11.58s" repeatCount="indefinite">
                <mpath xlink:href="#path85"></mpath>
            </animateMotion>
        </circle><path id="path86" d="M 1192.3509102453381 526.7867791713137
c 0 25.580344871026647 -6.259020553549073 7.3475458672097815 -13.606566420758854 7.3475458672097815
S 1165.1377774038206 552.3671240423404 1165.1377774038206 526.7867791713137
s 6.259020553549073 -7.3475458672097815 13.606566420758854 -7.3475458672097815
S 1192.3509102453381 501.20643430028707 1192.3509102453381 526.7867791713137
z" fill="none" stroke="none"></path>
        <circle cx="0" cy="0" r="5.501957695938657" fill="#d9dbee" opacity="0.9">
            <animateMotion begin="-7.774889883080874s" dur="11.58s" repeatCount="indefinite">
                <mpath xlink:href="#path86"></mpath>
            </animateMotion>
        </circle></g>
</svg>
